<svg width="380" height="481" viewBox="0 0 380 481" fill="none" xmlns="http://www.w3.org/2000/svg">
<path d="M190 0.360001C164.992 0.370266 140.232 5.31947 117.142 14.9235C94.0511 24.5276 73.0847 38.5974 55.446 56.3254C37.8072 74.0534 23.8433 95.0904 14.3558 118.229C4.86837 141.368 0.0441199 166.152 0.159998 191.16C0.159998 323 136.16 443.88 178 475.88C181.512 478.78 185.925 480.367 190.48 480.367C195.035 480.367 199.448 478.78 202.96 475.88C244.88 442.92 379.76 323 379.76 191.16C379.876 166.159 375.054 141.381 365.572 118.247C356.089 95.1141 342.133 74.0806 324.502 56.3537C306.872 38.6268 285.915 24.5553 262.834 14.9465C239.753 5.33777 215.001 0.380795 190 0.360001ZM190 270.04C174.177 270.04 158.71 265.348 145.554 256.558C132.398 247.767 122.145 235.273 116.09 220.655C110.035 206.037 108.45 189.951 111.537 174.433C114.624 158.914 122.243 144.66 133.431 133.471C144.62 122.283 158.874 114.664 174.393 111.577C189.911 108.49 205.997 110.075 220.615 116.13C235.233 122.185 247.727 132.438 256.518 145.594C265.308 158.75 270 174.218 270 190.04C270 211.257 261.571 231.606 246.569 246.609C231.566 261.611 211.217 270.04 190 270.04Z" fill="#FF924A"/>
</svg>
