<svg width="443" height="340" viewBox="0 0 443 340" fill="none" xmlns="http://www.w3.org/2000/svg">
<path d="M434.539 47.499L395.711 8.67098C390.387 3.34298 383.912 0.677979 376.301 0.677979C368.683 0.677979 362.208 3.34298 356.884 8.67098L169.59 196.248L85.651 112.023C80.321 106.693 73.85 104.031 66.239 104.031C58.623 104.031 52.152 106.693 46.822 112.023L7.994 150.852C2.664 156.181 0 162.654 0 170.269C0 177.878 2.664 184.357 7.994 189.685L111.345 293.034L150.176 331.862C155.503 337.194 161.976 339.856 169.59 339.856C177.201 339.856 183.674 337.187 189.004 331.862L227.834 293.034L434.539 86.33C439.864 81 442.533 74.528 442.533 66.913C442.537 59.302 439.864 52.829 434.539 47.499Z" fill="#999999"/>
</svg>
