<svg width="148" height="61" viewBox="0 0 148 61" fill="none" xmlns="http://www.w3.org/2000/svg">
<path d="M60.7727 9.61364V8.36364H69.5V9.61364H65.8409V20H64.4318V9.61364H60.7727ZM71.7131 20V8.36364H75.6449C76.5578 8.36364 77.304 8.52841 77.8836 8.85795C78.4669 9.18371 78.8987 9.625 79.179 10.1818C79.4593 10.7386 79.5995 11.3598 79.5995 12.0455C79.5995 12.7311 79.4593 13.3542 79.179 13.9148C78.9025 14.4754 78.4745 14.9223 77.8949 15.2557C77.3154 15.5852 76.573 15.75 75.6677 15.75H72.8495V14.5H75.6222C76.2472 14.5 76.7491 14.392 77.1279 14.1761C77.5067 13.9602 77.7813 13.6686 77.9518 13.3011C78.126 12.9299 78.2131 12.5114 78.2131 12.0455C78.2131 11.5795 78.126 11.1629 77.9518 10.7955C77.7813 10.428 77.5048 10.1402 77.1222 9.93182C76.7396 9.7197 76.2321 9.61364 75.5995 9.61364H73.1222V20H71.7131ZM91.7259 14.1818C91.7259 15.4091 91.5044 16.4697 91.0612 17.3636C90.618 18.2576 90.01 18.947 89.2373 19.4318C88.4646 19.9167 87.582 20.1591 86.5896 20.1591C85.5972 20.1591 84.7146 19.9167 83.9419 19.4318C83.1691 18.947 82.5612 18.2576 82.118 17.3636C81.6748 16.4697 81.4532 15.4091 81.4532 14.1818C81.4532 12.9545 81.6748 11.8939 82.118 11C82.5612 10.1061 83.1691 9.41667 83.9419 8.93182C84.7146 8.44697 85.5972 8.20455 86.5896 8.20455C87.582 8.20455 88.4646 8.44697 89.2373 8.93182C90.01 9.41667 90.618 10.1061 91.0612 11C91.5044 11.8939 91.7259 12.9545 91.7259 14.1818ZM90.3623 14.1818C90.3623 13.1742 90.1938 12.3239 89.8566 11.6307C89.5233 10.9375 89.0706 10.4129 88.4987 10.0568C87.9305 9.70076 87.2941 9.52273 86.5896 9.52273C85.885 9.52273 85.2468 9.70076 84.6748 10.0568C84.1066 10.4129 83.654 10.9375 83.3169 11.6307C82.9835 12.3239 82.8169 13.1742 82.8169 14.1818C82.8169 15.1894 82.9835 16.0398 83.3169 16.733C83.654 17.4261 84.1066 17.9508 84.6748 18.3068C85.2468 18.6629 85.885 18.8409 86.5896 18.8409C87.2941 18.8409 87.9305 18.6629 88.4987 18.3068C89.0706 17.9508 89.5233 17.4261 89.8566 16.733C90.1938 16.0398 90.3623 15.1894 90.3623 14.1818ZM94.1337 8.36364H95.52V17.5227H95.6337L101.997 8.36364H103.361V20H101.952V10.8636H101.838L95.4973 20H94.1337V8.36364ZM99.8609 5.45455H101.111C101.111 6.06818 100.899 6.57008 100.475 6.96023C100.05 7.35038 99.4746 7.54545 98.7473 7.54545C98.0314 7.54545 97.4613 7.35038 97.0371 6.96023C96.6166 6.57008 96.4064 6.06818 96.4064 5.45455H97.6564C97.6564 5.75 97.7378 6.00947 97.9007 6.23295C98.0674 6.45644 98.3496 6.56818 98.7473 6.56818C99.145 6.56818 99.4291 6.45644 99.5996 6.23295C99.7738 6.00947 99.8609 5.75 99.8609 5.45455ZM68.25 38L64.25 32.6591H62.8182V38H61.4091V26.3636H62.8182V31.4091H63.4318L68.0909 26.3636H69.7727L65.0682 31.4773L69.9318 38H68.25ZM81.0625 32.1818C81.0625 33.4091 80.841 34.4697 80.3978 35.3636C79.9546 36.2576 79.3466 36.947 78.5739 37.4318C77.8012 37.9167 76.9186 38.1591 75.9262 38.1591C74.9338 38.1591 74.0512 37.9167 73.2785 37.4318C72.5057 36.947 71.8978 36.2576 71.4546 35.3636C71.0114 34.4697 70.7898 33.4091 70.7898 32.1818C70.7898 30.9545 71.0114 29.8939 71.4546 29C71.8978 28.1061 72.5057 27.4167 73.2785 26.9318C74.0512 26.447 74.9338 26.2045 75.9262 26.2045C76.9186 26.2045 77.8012 26.447 78.5739 26.9318C79.3466 27.4167 79.9546 28.1061 80.3978 29C80.841 29.8939 81.0625 30.9545 81.0625 32.1818ZM79.6989 32.1818C79.6989 31.1742 79.5304 30.3239 79.1932 29.6307C78.8599 28.9375 78.4072 28.4129 77.8353 28.0568C77.2671 27.7008 76.6307 27.5227 75.9262 27.5227C75.2216 27.5227 74.5834 27.7008 74.0114 28.0568C73.4432 28.4129 72.9906 28.9375 72.6535 29.6307C72.3201 30.3239 72.1535 31.1742 72.1535 32.1818C72.1535 33.1894 72.3201 34.0398 72.6535 34.733C72.9906 35.4261 73.4432 35.9508 74.0114 36.3068C74.5834 36.6629 75.2216 36.8409 75.9262 36.8409C76.6307 36.8409 77.2671 36.6629 77.8353 36.3068C78.4072 35.9508 78.8599 35.4261 79.1932 34.733C79.5304 34.0398 79.6989 33.1894 79.6989 32.1818ZM61.4091 57V45.3636H68.4318V46.6136H62.8182V50.5455H68.0682V51.7955H62.8182V55.75H68.5227V57H61.4091ZM71.01 45.3636H72.4191V55.7045H76.51V45.3636H77.9191V55.7045H82.01V45.3636H83.4191V57H71.01V45.3636ZM86.2828 57V45.3636H93.3055V46.6136H87.6919V50.5455H92.9419V51.7955H87.6919V55.75H93.3964V57H86.2828ZM95.8837 57V45.3636H97.2928V50.5455H103.497V45.3636H104.906V57H103.497V51.7955H97.2928V57H95.8837ZM107.766 45.3636H109.152V54.5227H109.266L115.629 45.3636H116.993V57H115.584V47.8636H115.47L109.129 57H107.766V45.3636ZM119.851 57V45.3636H126.874V46.6136H121.26V50.5455H126.51V51.7955H121.26V55.75H126.965V57H119.851Z" fill="black"/>
<rect width="60" height="59" fill="#FF924A"/>
<rect x="4" y="3" width="52" height="53" fill="white"/>
<path d="M48.2312 20.288C46.9352 20.288 45.7272 20.08 44.6072 19.664C43.5032 19.232 42.5432 18.624 41.7272 17.84C40.9112 17.056 40.2712 16.136 39.8072 15.08C39.3592 14.024 39.1352 12.864 39.1352 11.6C39.1352 10.336 39.3592 9.176 39.8072 8.12C40.2712 7.064 40.9112 6.144 41.7272 5.36C42.5592 4.576 43.5272 3.976 44.6312 3.56C45.7352 3.128 46.9432 2.912 48.2552 2.912C49.7112 2.912 51.0232 3.168 52.1912 3.68C53.3752 4.176 54.3672 4.912 55.1672 5.888L52.6712 8.192C52.0952 7.536 51.4552 7.048 50.7512 6.728C50.0472 6.392 49.2792 6.224 48.4472 6.224C47.6632 6.224 46.9432 6.352 46.2872 6.608C45.6312 6.864 45.0632 7.232 44.5832 7.712C44.1032 8.192 43.7272 8.76 43.4552 9.416C43.1992 10.072 43.0712 10.8 43.0712 11.6C43.0712 12.4 43.1992 13.128 43.4552 13.784C43.7272 14.44 44.1032 15.008 44.5832 15.488C45.0632 15.968 45.6312 16.336 46.2872 16.592C46.9432 16.848 47.6632 16.976 48.4472 16.976C49.2792 16.976 50.0472 16.816 50.7512 16.496C51.4552 16.16 52.0952 15.656 52.6712 14.984L55.1672 17.288C54.3672 18.264 53.3752 19.008 52.1912 19.52C51.0232 20.032 49.7032 20.288 48.2312 20.288ZM43.6896 30.992V28.016H51.9936V30.992H43.6896ZM45.8976 20.912C47.1616 20.912 48.3216 21.128 49.3776 21.56C50.4336 21.976 51.3536 22.576 52.1376 23.36C52.9216 24.144 53.5296 25.064 53.9616 26.12C54.3936 27.176 54.6096 28.336 54.6096 29.6C54.6096 30.864 54.3936 32.024 53.9616 33.08C53.5296 34.136 52.9216 35.056 52.1376 35.84C51.3536 36.624 50.4336 37.232 49.3776 37.664C48.3216 38.08 47.1616 38.288 45.8976 38.288C44.4096 38.288 43.0656 38.032 41.8656 37.52C40.6816 37.008 39.6896 36.264 38.8896 35.288L41.3616 32.984C41.9536 33.656 42.6096 34.16 43.3296 34.496C44.0496 34.816 44.8416 34.976 45.7056 34.976C46.4256 34.976 47.0896 34.848 47.6976 34.592C48.3216 34.32 48.8496 33.952 49.2816 33.488C49.7296 33.008 50.0656 32.44 50.2896 31.784C50.5296 31.128 50.6496 30.4 50.6496 29.6C50.6496 28.8 50.5296 28.072 50.2896 27.416C50.0656 26.76 49.7296 26.2 49.2816 25.736C48.8496 25.256 48.3216 24.888 47.6976 24.632C47.0896 24.36 46.4256 24.224 45.7056 24.224C44.8416 24.224 44.0496 24.392 43.3296 24.728C42.6096 25.048 41.9536 25.544 41.3616 26.216L38.8896 23.912C39.6896 22.936 40.6816 22.192 41.8656 21.68C43.0656 21.168 44.4096 20.912 45.8976 20.912ZM40.4044 57V40.2H47.6764C49.1804 40.2 50.4764 40.448 51.5644 40.944C52.6524 41.424 53.4924 42.12 54.0844 43.032C54.6764 43.944 54.9724 45.032 54.9724 46.296C54.9724 47.544 54.6764 48.624 54.0844 49.536C53.4924 50.448 52.6524 51.152 51.5644 51.648C50.4764 52.128 49.1804 52.368 47.6764 52.368H42.5644L44.2924 50.616V57H40.4044ZM44.2924 51.048L42.5644 49.2H47.4604C48.6604 49.2 49.5564 48.944 50.1484 48.432C50.7404 47.92 51.0364 47.208 51.0364 46.296C51.0364 45.368 50.7404 44.648 50.1484 44.136C49.5564 43.624 48.6604 43.368 47.4604 43.368H42.5644L44.2924 41.52V51.048Z" fill="#FF924A"/>
<path d="M21.0052 27.693C20.5921 27.2469 20.0559 27 19.5 27C18.9441 27 18.4079 27.2469 17.9948 27.693L6 40.6445V54.6811C6 55.8265 6.37928 56.925 7.05442 57.735C7.72955 58.545 8.64522 59 9.6 59H13.875V49.5132C13.875 47.7234 14.4676 46.0069 15.5225 44.7414C16.5774 43.4758 18.0082 42.7648 19.5 42.7648C20.9918 42.7648 22.4226 43.4758 23.4775 44.7414C24.5324 46.0069 25.125 47.7234 25.125 49.5132V58.9959H29.4C30.3548 58.9959 31.2705 58.5409 31.9456 57.731C32.6207 56.921 33 55.8225 33 54.677V40.6404L21.0052 27.693Z" fill="#FF924A"/>
<g clip-path="url(#clip0_40_6)">
<path d="M28.338 28.1108C27.9707 27.6701 27.4941 27.4262 27 27.4262C26.5059 27.4262 26.0293 27.6701 25.662 28.1108L15 40.9055V54.7721C15 55.9037 15.3371 56.989 15.9373 57.7891C16.5374 58.5893 17.3513 59.0388 18.2 59.0388H22V49.6668C22 47.8987 22.5268 46.203 23.4645 44.9528C24.4021 43.7025 25.6739 43.0001 27 43.0001C28.3261 43.0001 29.5979 43.7025 30.5355 44.9528C31.4732 46.203 32 47.8987 32 49.6668V59.0348H35.8C36.6487 59.0348 37.4626 58.5853 38.0627 57.7851C38.6629 56.985 39 55.8997 39 54.7681V40.9015L28.338 28.1108Z" fill="#FF924A"/>
</g>
<g clip-path="url(#clip1_40_6)">
<path d="M13.338 28.1108C12.9707 27.6701 12.4941 27.4262 12 27.4262C11.5059 27.4262 11.0293 27.6701 10.662 28.1108L0 40.9055V54.7721C0 55.9037 0.337142 56.989 0.937258 57.7891C1.53737 58.5893 2.35131 59.0388 3.2 59.0388H7V49.6668C7 47.8987 7.52678 46.203 8.46447 44.9528C9.40215 43.7025 10.6739 43.0001 12 43.0001C13.3261 43.0001 14.5979 43.7025 15.5355 44.9528C16.4732 46.203 17 47.8987 17 49.6668V59.0348H20.8C21.6487 59.0348 22.4626 58.5853 23.0627 57.7851C23.6629 56.985 24 55.8997 24 54.7681V40.9015L13.338 28.1108Z" fill="#FF924A"/>
</g>
<defs>
<clipPath id="clip0_40_6">
<rect width="24" height="32" fill="white" transform="translate(15 27)"/>
</clipPath>
<clipPath id="clip1_40_6">
<rect width="24" height="32" fill="white" transform="translate(0 27)"/>
</clipPath>
</defs>
</svg>
